# xmcd
#
# Track frame offsets:
#	150
#	19408
#	41478
#	54840
#	75765
#	90953
#	115262
#	135252
#	155469
#
# Disc length: 2309 seconds
#
# Revision: 1
# Processed by: cddbd v1.5.2PL0 Copyright (c) Steve Scherf et al.
# Submitted via: audiograbber 1.80
#
DISCID=57090309
DTITLE=Eternity - I'm Waiting On You
DYEAR=1900
DGENRE=
TTITLE0=Do you know who Jesus is?
TTITLE1=Jesus will never leave me
TTITLE2=I got a right
TTITLE3=I'm waiting on you
TTITLE4=Get up (Gospel Slide)
TTITLE5=Hold On
TTITLE6=What time it is
TTITLE7=Just like that
TTITLE8=Never too late
EXTD=Gospel 
EXTT0=
EXTT1=
EXTT2=
EXTT3=
EXTT4=
EXTT5=
EXTT6=
EXTT7=
EXTT8=
PLAYORDER=
